HIERARCHY
ROOT Hips
{
	OFFSET -3.958830 18.904000 13.208200
	CHANNELS 6 Xposition Yposition Zposition Zrotation Yrotation Xrotation 
	JOINT LHipJoint
	{
		OFFSET 0.000000 0.000000 0.000000
		CHANNELS 3 Zrotation Yrotation Xrotation
		JOINT LeftUpLeg
		{
			OFFSET 1.800000 -1.400000 0.085000
			CHANNELS 3 Zrotation Yrotation Xrotation
			JOINT LeftLeg
			{
				OFFSET 2.215000 -6.000000 0.000000
				CHANNELS 3 Zrotation Yrotation Xrotation
				JOINT LeftFoot
				{
					OFFSET 2.500000 -6.900000 0.000000
					CHANNELS 3 Zrotation Yrotation Xrotation
					JOINT LeftToeBase
					{
						OFFSET 0.200000 -0.500000 1.950000
						CHANNELS 3 Zrotation Yrotation Xrotation
						End Site
						{
							OFFSET 0.000000 0.000000 0.000000
						}
					}
				}
			}
		}
	}
	JOINT RHipJoint
	{
		OFFSET 0.000000 0.000000 0.000000
		CHANNELS 3 Zrotation Yrotation Xrotation
		JOINT RightUpLeg
		{
			OFFSET -1.800000 -1.400000 0.085000
			CHANNELS 3 Zrotation Yrotation Xrotation
			JOINT RightLeg
			{
				OFFSET -2.215000 -6.000000 0.000000
				CHANNELS 3 Zrotation Yrotation Xrotation
				JOINT RightFoot
				{
					OFFSET -2.500000 -6.900000 0.000000
					CHANNELS 3 Zrotation Yrotation Xrotation
					JOINT RightToeBase
					{
						OFFSET -0.200000 -0.500000 1.950000
						CHANNELS 3 Zrotation Yrotation Xrotation
						End Site
						{
							OFFSET 0.000000 0.000000 0.000000
						}
					}
				}
			}
		}
	}
	JOINT LowerBack
	{
		OFFSET 0.000000 0.000000 0.000000
		CHANNELS 3 Zrotation Yrotation Xrotation
		JOINT Spine
		{
			OFFSET -0.087000 1.940000 -0.288900
			CHANNELS 3 Zrotation Yrotation Xrotation
			JOINT Spine1
			{
				OFFSET 0.000000 1.950000 0.060000
				CHANNELS 3 Zrotation Yrotation Xrotation
				JOINT Neck
				{
					OFFSET 0.000000 0.000000 0.000000
					CHANNELS 3 Zrotation Yrotation Xrotation
					JOINT Neck1
					{
						OFFSET 0.000000 1.600000 0.340000
						CHANNELS 3 Zrotation Yrotation Xrotation
						JOINT Head
						{
							OFFSET 0.000000 1.667000 -0.240000
							CHANNELS 3 Zrotation Yrotation Xrotation
							End Site
							{
								OFFSET 0.000000 0.000000 0.000000
							}
						}
					}
				}
				JOINT LeftShoulder
				{
					OFFSET 0.000000 0.000000 0.000000
					CHANNELS 3 Zrotation Yrotation Xrotation
					JOINT LeftArm
					{
						OFFSET 2.700000 1.550000 -0.730000
						CHANNELS 3 Zrotation Yrotation Xrotation
						JOINT LeftForeArm
						{
							OFFSET 5.450000 0.000000 0.000000
							CHANNELS 3 Zrotation Yrotation Xrotation
							JOINT LeftHand
							{
								OFFSET 3.450000 0.000000 0.000000
								CHANNELS 3 Zrotation Yrotation Xrotation
								JOINT LeftHandIndex1
								{
									OFFSET 0.750000 0.000000 0.000000
									CHANNELS 3 Zrotation Yrotation Xrotation
									End Site
									{
										OFFSET 0.000000 0.000000 0.000000
									}
								}
							}
						}
					}
				}
				JOINT RightShoulder
				{
					OFFSET 0.000000 0.000000 0.000000
					CHANNELS 3 Zrotation Yrotation Xrotation
					JOINT RightArm
					{
						OFFSET -2.700000 1.550000 -0.730000
						CHANNELS 3 Zrotation Yrotation Xrotation
						JOINT RightForeArm
						{
							OFFSET -5.450000 0.000000 0.000000
							CHANNELS 3 Zrotation Yrotation Xrotation
							JOINT RightHand
							{
								OFFSET -3.450000 0.000000 0.000000
								CHANNELS 3 Zrotation Yrotation Xrotation
								JOINT RightHandIndex1
								{
									OFFSET -0.750000 0.000000 0.000000
									CHANNELS 3 Zrotation Yrotation Xrotation
									End Site
									{
										OFFSET 0.000000 0.000000 0.000000
									}
								}
							}
						}
					}
				}
			}
		}
	}
}
MOTION
Frames: 10
Frame Time: 0.016667
0.045070 17.708970 -0.644630 -18.416651 -3.120118 -9.211829 -14.647092 11.656891 1.159307 11.245387 -0.803360 -11.823869 -1.172637 5.044663 14.713039 -0.155680 3.519783 3.537840 0.083310 -0.204940 -0.055710 19.195406 -8.700938 6.541966 3.564676 26.755005 -52.582659 3.454201 -38.913178 114.133714 -4.515444 -20.599528 -1.079411 -0.247820 0.316400 0.106760 -5.621141 0.239144 -8.716840 33.672916 -13.285452 24.892629 -22.252461 -2.850564 0.965821 5.258050 -7.075468 -8.591402 -12.753365 0.750585 33.499210 3.473050 -6.588490 -5.571820 -7.696647 13.298011 1.886810 -49.284732 12.146609 -9.861153 -80.699782 -60.678502 43.951919 -3.272527 3.772344 0.410840 0.001490 -0.078820 0.251100 -4.567612 -6.989206 7.157783 48.325626 -11.115656 -20.970283 -32.080583 81.674632 -24.791205 1.626379 -1.392560 -0.126230 0.141980 -0.000140 0.023500 
0.026670 17.565960 -0.618760 -15.685858 -2.074573 -8.480180 -14.647016 11.733507 1.271690 7.063954 -1.108066 -13.298123 0.455064 4.493674 16.164772 -0.240626 3.290450 3.614170 0.100160 -0.174620 -0.050060 19.122609 -8.884133 6.259758 0.579135 23.275027 -48.868013 7.833934 -45.178480 112.980893 -4.729592 -21.481624 -1.244949 -0.198480 0.332820 0.106010 -5.545181 0.040659 -8.633659 28.906384 -11.667332 23.209194 -19.571826 -3.602132 2.229521 4.361497 -6.428888 -8.550871 -11.749519 0.648911 32.729274 2.875860 -6.138940 -4.688900 -6.964622 11.642510 2.688881 -47.501189 11.827752 -9.619200 -83.016076 -61.453165 45.731849 -3.331083 3.802752 0.378110 0.037170 -0.107740 0.245890 -3.228697 -6.677366 5.998476 46.400155 -9.877314 -20.643315 -37.810724 78.592559 -26.960811 1.565028 -1.230163 -0.139520 0.146320 0.007140 0.015130 
0.019310 17.429960 -0.604030 -14.343471 -2.685597 -8.559604 -14.658363 11.858591 1.369467 4.807569 -1.196597 -13.754194 1.991299 4.135038 17.676631 -0.281497 3.259530 3.616463 0.130080 -0.141290 -0.044770 19.054698 -9.010353 6.064509 0.603979 20.706316 -43.146968 13.121221 -48.195580 107.403239 -4.701976 -21.231921 -1.211064 -0.165890 0.336420 0.107640 -5.443049 -0.212318 -8.567408 26.234509 -10.717925 23.117893 -17.594186 -3.790516 2.743020 3.706235 -6.273281 -8.660782 -11.753318 1.023095 33.166001 3.657220 -6.093300 -5.264980 -6.670252 10.240080 3.260678 -46.085292 11.431729 -9.321987 -85.933104 -63.118908 48.813887 -3.360546 3.802585 0.392630 0.036630 -0.107140 0.252930 -1.998504 -5.728918 5.156656 44.109692 -8.406925 -20.038449 -40.172262 75.386320 -26.794985 1.547610 -1.150375 -0.146130 0.160810 0.009980 0.008710 
0.010730 17.298600 -0.587820 -13.022683 -4.589072 -8.319407 -14.677934 11.958536 1.491273 3.245871 -1.344107 -14.716507 2.622305 4.235945 20.525492 -0.246496 3.432747 3.541908 0.162500 -0.090890 -0.027720 18.996281 -9.110593 5.932103 -0.597843 18.726738 -38.264731 16.574958 -48.799704 102.573492 -4.549484 -20.569405 -1.114416 -0.133700 0.330640 0.102650 -5.332904 -0.398645 -8.531807 23.880464 -9.199097 23.127349 -15.827070 -3.335776 2.328714 3.190268 -6.310165 -8.496961 -11.951310 1.161639 33.172054 3.582220 -5.888890 -5.089550 -7.271722 9.702171 3.341769 -43.806063 11.155235 -8.528683 -88.646242 -64.242620 51.961570 -3.394766 3.799924 0.367910 0.039870 -0.106260 0.264870 -0.278116 -5.118856 4.377926 41.673070 -7.437261 -19.073386 -41.693226 73.016983 -26.436640 1.565693 -1.124113 -0.133650 0.159930 -0.014870 0.016780 
-0.004020 17.165960 -0.585100 -11.112685 -7.650055 -8.255057 -14.720744 12.058273 1.708182 1.432239 -1.619314 -15.958175 2.825044 4.601635 24.260072 -0.219087 3.841188 3.383645 0.167590 -0.092830 -0.005810 18.921850 -9.248262 5.745594 -1.440288 17.270322 -33.411110 17.786893 -46.463062 98.342786 -4.299782 -19.586807 -0.968762 -0.122760 0.336100 0.111080 -5.164068 -0.554749 -8.526227 20.738062 -7.179469 23.426754 -14.049165 -2.300837 2.147543 2.852403 -6.167408 -8.515307 -11.903042 1.100369 33.534587 2.870690 -5.418020 -5.478650 -7.866030 8.956017 3.390037 -42.091729 10.612847 -7.840205 -91.341875 -65.729213 55.421715 -3.463924 3.730300 0.384070 0.048130 -0.100620 0.257230 1.114182 -4.138315 3.940667 40.542875 -5.902355 -18.316243 -40.774955 70.741844 -24.823489 1.585090 -1.129201 -0.148740 0.179550 -0.004240 0.001190 
-0.045340 17.022800 -0.584140 -8.048589 -10.919598 -7.452138 -14.802891 11.989054 2.101279 -1.035693 -2.505530 -18.515348 1.937598 5.531595 29.320269 -0.167194 4.574605 3.091935 0.176600 -0.085070 0.010380 18.830314 -9.407212 5.433051 -3.007969 15.707785 -29.965154 17.642162 -42.174373 93.736411 -3.949441 -18.441920 -0.797663 -0.086040 0.357440 0.131360 -4.927319 -0.537843 -8.538564 15.582181 -4.184440 21.710153 -12.061407 -0.812376 2.664243 2.447096 -5.098667 -7.985608 -10.005925 0.800346 33.501500 1.358130 -4.172210 -4.707680 -8.124620 9.009433 2.989992 -40.295354 8.767323 -6.443288 -93.000534 -67.820723 59.158800 -3.584425 3.668202 0.366900 0.100820 -0.127540 0.243560 2.353842 -4.627454 3.315957 41.767660 -3.862803 -17.318911 -37.918012 69.239141 -22.545863 1.583894 -1.221172 -0.168600 0.179920 0.017130 -0.024620 
-0.078590 16.899680 -0.565900 -6.888261 -15.133658 -6.010251 -14.813567 11.911748 2.349817 -1.180648 -3.048479 -21.302070 0.897245 6.314590 31.731003 -0.150841 5.041095 2.916472 0.169510 -0.102720 0.009290 18.816502 -9.719881 5.030490 -2.531391 14.615135 -25.712019 15.411988 -37.147899 90.726228 -3.605192 -17.377816 -0.615843 -0.060020 0.413010 0.148720 -4.924412 -0.186356 -8.346448 14.173455 -1.702234 18.031957 -11.314383 1.022133 3.902760 2.093785 -4.543063 -7.420191 -8.936625 0.520819 33.147027 0.504670 -3.598580 -2.960820 -8.746927 9.119054 2.584631 -39.879297 6.770562 -5.391563 -94.063582 -70.881012 63.055117 -3.740074 3.523097 0.321470 0.167470 -0.179670 0.240660 3.679201 -4.959343 3.025519 43.295403 -3.054382 -16.877990 -33.690441 68.827596 -20.219138 1.587961 -1.329833 -0.191530 0.188170 0.040930 -0.033200 
-0.113300 16.797200 -0.546170 -6.087958 -18.944130 -5.533687 -14.806655 11.927105 2.598517 -0.998307 -3.445659 -23.166826 0.082832 7.089375 34.212657 -0.074928 5.522121 2.735529 0.155500 -0.095190 -0.006220 18.796447 -10.135628 4.554205 -1.601580 12.863995 -20.490816 13.984599 -31.826566 84.965936 -3.191382 -15.916186 -0.310005 -0.045850 0.437720 0.132200 -4.922181 0.170901 -8.124689 13.210878 0.168622 15.691059 -11.070586 2.521701 4.474843 1.849844 -4.149382 -7.045681 -8.272868 0.411940 33.571670 0.564130 -3.196920 -2.198230 -8.818116 9.734553 2.165221 -40.558289 4.709309 -4.416046 -94.611473 -74.120738 66.667725 -3.860352 3.234150 0.289300 0.191400 -0.200130 0.238700 4.178625 -5.607855 3.046582 46.280004 -2.305191 -16.378991 -25.152383 67.942840 -15.374157 1.660820 -1.483681 -0.201060 0.208010 0.048790 -0.025970 
-0.137040 16.719520 -0.534570 -5.884324 -22.282684 -5.646076 -14.788720 12.023583 2.868850 -0.226968 -3.885185 -24.633391 -0.738595 7.969278 37.223948 0.010380 6.171561 2.496540 0.160810 -0.098620 -0.008260 18.773027 -10.572426 4.017419 -0.573889 10.318555 -14.438177 12.539422 -26.599876 77.382860 -2.745394 -14.219716 0.083543 -0.038960 0.443830 0.115950 -4.917722 0.375127 -7.893325 13.046743 1.403605 14.153052 -10.630241 3.656036 5.127689 1.486833 -4.306857 -6.963701 -8.869840 0.547023 34.639202 1.634820 -3.470360 -2.161500 -9.173046 9.917464 1.949029 -42.888705 3.288948 -4.932102 -104.280428 -76.028657 78.782088 -3.890794 2.670724 0.314610 0.177040 -0.202940 0.245070 5.192648 -5.550306 3.241325 48.514663 -2.360792 -16.104465 -14.859156 66.980844 -9.721320 1.733168 -1.607646 -0.222020 0.228340 0.052290 -0.032180 
-0.162460 16.650080 -0.531880 -6.405055 -25.841432 -5.258739 -14.738331 12.064195 3.153620 1.061983 -4.391986 -26.570947 -1.117171 8.676752 40.480297 0.116754 6.827583 2.268800 0.184650 -0.066300 -0.005810 18.791275 -11.032604 3.505367 1.045997 7.275610 -8.319148 9.856267 -20.906674 68.887545 -2.271566 -12.317471 0.601703 -0.022370 0.452180 0.089300 -5.042549 0.712148 -7.648258 14.228299 2.341539 12.550237 -11.148310 4.636840 5.710292 1.331869 -4.466055 -6.883510 -9.388201 0.753549 35.483298 3.108810 -3.724540 -2.618310 -10.328917 9.959748 1.813415 -45.251355 2.508793 -6.460527 -122.408777 -76.891040 102.273098 -3.560111 2.748629 0.340200 0.158310 -0.191060 0.274400 6.464043 -5.557914 3.453134 51.178934 -2.848733 -15.817951 -4.643326 63.818588 -4.037727 1.808848 -1.669470 -0.236560 0.266810 0.028050 -0.025450 
